<!-- ============================================================
     TRANBERG INSTITUT AB — MONOCHROME BLACK  v2.0
     Single colour. For letterpress, embossing, fax, B&W print.
     Form 1 uses 50% opacity to retain visual differentiation
     between the two forms in single-ink print.
     ViewBox: 400 × 400
     ============================================================ -->
<svg
  xmlns="http://www.w3.org/2000/svg"
  viewBox="0 0 400 400"
  preserveAspectRatio="xMidYMid meet"
  shape-rendering="geometricPrecision"
  role="img"
  aria-labelledby="ti-mono-title">

  <title id="ti-mono-title">Tranberg Institut AB — Symbol (monokrom svart)</title>

  <circle cx="200" cy="200" r="166" fill="none" stroke="#000000" stroke-width="2.4"/>

  <path d="M 200,52 C 255,52 308,90 326,144 C 342,190 328,242 296,268 C 272,288 240,292 218,278 C 198,266 186,244 186,220 C 186,192 202,168 222,152 C 242,136 258,112 240,80 C 230,64 216,52 200,52 Z" fill="#000000" fill-opacity="0.42"/>

  <path d="M 200,348 C 145,348 92,310 74,256 C 58,210 72,158 104,132 C 128,112 160,108 182,122 C 202,134 214,156 214,180 C 214,208 198,232 178,248 C 158,264 142,288 160,320 C 170,336 184,348 200,348 Z" fill="#000000"/>

  <circle cx="200" cy="200" r="11"  fill="#000000"/>
  <circle cx="200" cy="31"  r="6.5" fill="#000000"/>
  <circle cx="200" cy="369" r="6.5" fill="#000000"/>
  <circle cx="362" cy="234" r="4"   fill="#000000"/>

</svg>
