<?xml version="1.0" encoding="UTF-8"?>
<svg xmlns="http://www.w3.org/2000/svg" viewBox="0 0 800 800" width="800" height="800" shape-rendering="geometricPrecision">
  <!-- Solid Dark Green Background -->
  <rect width="800" height="800" fill="#26332B"/>

  <!-- Two-Color Light Symbol (White & Gold) scaled and centered at (400, 400) -->
  <!-- ViewBox of symbol is 81 125 70 70. Center is 116, 160. Radie is 32. -->
  <!-- Scale factor: We want circle radius to be ca 250 (diameter 500 in 800x800 page). -->
  <!-- S = 250 / 32 = 7.8125. -->
  <!-- Translate: DX = 400 - (116 * 7.8125) = -506.25. DY = 400 - (160 * 7.8125) = -850. -->
  <!-- transform="translate(-506.25, -850) scale(7.8125)" -->
  <g transform="translate(-506.25, -850) scale(7.8125)">
    <!-- White elements -->
    <g fill="#ffffff">
      <path d="M 101.2023,184.4129 c -0.50932,-0.38387 -1.802546,-1.58522 -2.873835,-2.66966 -8.261532,-8.36296 -10.235575,-20.63058 -5.010195,-31.13566 2.033362,-4.08786 5.508079,-8.13938 8.86374,-10.33512 0.87582,-0.57308 1.81734,-1.19209 2.09228,-1.37558 0.27494,-0.18348 -0.0359,-0.0785 -0.69074,0.23331 -6.631056,3.15744 -11.883699,10.22083 -13.552348,18.22427 -0.746988,3.58282 -0.554878,8.91626 0.443156,12.30312 1.736018,5.89124 5.292769,10.97902 10.198772,14.58893 0.65485,0.48184 1.25016,0.87344 1.32292,0.87021 0.0728,-0.003 -0.28443,-0.31994 -0.79375,-0.70382 z"/>
      <path d="M 104.78547,160.81232 c -0.0837,-0.13546 -0.0312,-0.32108 0.11668,-0.41249 0.14789,-0.0914 0.2689,0.0194 0.2689,0.2463 0,0.46475 -0.15877,0.53318 -0.38558,0.16619 z"/>
      <path d="M 105.9648,151.82025 c 0,-0.32499 0.17084,-0.55121 0.41627,-0.55121 0.24639,0 0.38137,0.18001 0.33073,0.4411 -0.12873,0.66377 -0.747,0.75492 -0.747,0.11011 z"/>
      <path d="M 116.16328,190.04253 c 0.35719,-0.35719 0.64944,-0.89297 0.64944,-1.19063 0,-0.76015 -0.92627,-1.59953 -1.76511,-1.59953 -1.63137,0 -2.26604,1.87752 -0.97734,2.89122 0.90323,0.71047 1.30067,0.69128 2.09301,-0.10106 z"/>
      <path d="M 116.16328,135.80294 c 0.35719,-0.35719 0.64944,-0.89838 0.64944,-1.20265 0,-0.65112 -1.11519,-1.85208 -1.7198,-1.85208 -0.6046,0 -1.71979,1.20096 -1.71979,1.85208 0,0.65112 1.11519,1.85208 1.71979,1.85208 0.23151,0 0.71318,-0.29224 1.07036,-0.64943 z"/>
      <path d="M 115.96605,165.50362 c 0.17462,-0.17462 0.3175,-0.62706 0.3175,-1.00541 0,-0.83199 -0.44184,-1.32292 -1.19063,-1.32292 -0.74878,0 -1.19062,0.49093 -1.19062,1.32292 0,0.83198 0.44184,1.32291 1.19062,1.32291 0.3056,0 0.6985,-0.14287 0.87313,-0.3175 z"/>
    </g>
    <!-- Gold elements -->
    <g fill="#B28C5A">
      <path d="$delfin2_path"/>
      <path d="M 112.69428,183.04605 c 0.73128,-0.34136 1.92293,-0.54705 3.72156,-0.64235 4.14924,-0.21985 6.57102,-1.24645 9.58468,-4.06295 1.32769,-1.24083 1.68064,-1.74469 1.81968,-2.59775 l 0.1725,-1.05833 -0.76134,0.70916 c -0.41875,0.39004 -1.65096,1.13418 -2.73826,1.65365 -1.67029,0.79799 -2.25742,0.94448 -3.78544,0.94448 -0.9947,0 -2.33224,-0.13187 -2.97232,-0.29305 -1.02764,-0.25876 -1.28591,-0.48781 -2.20763,-1.95787 -1.01536,-1.61939 -2.35213,-2.68886 -3.96297,-3.17052 -0.60698,-0.1815 -0.61006,-0.17297 -0.17653,0.48868 0.24268,0.37037 0.40161,0.86928 0.35318,1.10868 -0.0689,0.34055 -0.46228,0.14547 -1.80784,-0.89654 -4.11206,-3.18436 -5.82868,-6.86243 -4.64697,-9.9567 0.59172,-1.54939 2.51072,-3.26266 3.90401,-3.48545 0.61276,-0.098 1.1345,-0.3655 1.29397,-0.66347 0.42777,-0.7993 0.0374,-1.08649 -1.22029,-0.89788 -0.69119,0.10365 -1.20297,0.0618 -1.30725,-0.10694 -0.24156,-0.39085 -1.4057,-0.34436 -2.96389,0.11837 -2.82067,0.83765 -5.119166,3.95831 -5.705496,7.74633 -0.236134,1.52555 -0.209131,2.25653 0.1503,4.06873 0.955856,4.81931 3.557816,8.30363 7.856666,10.52094 1.23314,0.63605 2.29442,1.20171 2.3584,1.25703 0.064,0.0553 -0.16157,0.29523 -0.50122,0.53313 -0.59011,0.41333 -0.59597,0.44833 -0.13191,0.78766 0.69399,0.50746 2.42033,0.43837 3.67441,-0.14704 z"/>
      <path d="M 122.22883,179.31887 c 0.56654,-0.28884 1.07903,-0.47621 1.13886,-0.41638 0.14445,0.14444 -1.40929,0.94155 -1.83528,0.94155 -0.18352,0 0.12987,-0.23632 0.69642,-0.52517 z"/>
      <path fill="none" stroke="#B28C5A" stroke-width="1.2" d="$ring_path"/>
      <path d="M 123.31001,156.76642 c -0.22653,-0.32342 -0.41188,-0.69519 -0.41188,-0.82615 0,-0.32388 0.76129,0.32999 1.08209,0.92941 0.37627,0.70306 -0.16371,0.61987 -0.67021,-0.10326 z"/>
    </g>
  </g>
</svg>
